<svg width="181" height="214" viewBox="0 0 181 214" fill="none" xmlns="http://www.w3.org/2000/svg">
<path d="M158.47 208.718C158.025 209.729 158.483 210.909 159.494 211.355C160.505 211.8 161.686 211.341 162.131 210.33L158.47 208.718ZM69.3143 91.038L67.623 92.1055L67.6233 92.1059L69.3143 91.038ZM153.936 69.9693L151.961 69.6584L151.961 69.6587L153.936 69.9693ZM1.39185 15.1969C0.438692 15.7551 0.118488 16.9803 0.676659 17.9334C1.23483 18.8866 2.46001 19.2068 3.41317 18.6486L1.39185 15.1969ZM179.019 204.518C180.019 204.051 180.452 202.861 179.985 201.86C179.518 200.859 178.327 200.426 177.327 200.893L179.019 204.518ZM159.645 211.354L157.956 212.424C158.494 213.274 159.58 213.592 160.491 213.166L159.645 211.354ZM149.87 192.979C149.186 192.112 147.928 191.964 147.061 192.649C146.194 193.333 146.046 194.591 146.731 195.458L149.87 192.979ZM160.301 209.524C162.131 210.33 162.131 210.33 162.132 210.328C162.132 210.328 162.133 210.326 162.134 210.324C162.135 210.321 162.137 210.316 162.14 210.31C162.145 210.298 162.153 210.28 162.163 210.257C162.183 210.212 162.211 210.145 162.249 210.058C162.324 209.884 162.432 209.627 162.572 209.292C162.85 208.623 163.251 207.64 163.742 206.377C164.726 203.852 166.075 200.204 167.546 195.692C170.488 186.675 173.929 174.182 175.912 160.302C179.861 132.663 178.106 98.8929 154.23 76.48L151.492 79.3964C173.887 100.418 175.852 132.441 171.952 159.736C170.011 173.323 166.637 185.583 163.744 194.452C162.298 198.883 160.975 202.461 160.015 204.926C159.535 206.158 159.146 207.112 158.879 207.755C158.745 208.077 158.642 208.32 158.572 208.482C158.538 208.563 158.511 208.623 158.494 208.663C158.486 208.683 158.479 208.697 158.475 208.706C158.473 208.711 158.472 208.714 158.471 208.716C158.471 208.717 158.47 208.718 158.47 208.718C158.47 208.718 158.47 208.718 160.301 209.524ZM154.23 76.48C130.594 54.2938 105.344 51.6473 87.6875 57.7651C78.9047 60.8083 71.9323 66.0529 68.0962 72.2126C64.2248 78.429 63.5455 85.6451 67.623 92.1055L71.0056 89.9705C67.8919 85.0373 68.2763 79.4899 71.4916 74.3271C74.7422 69.1076 80.8794 64.3574 88.9971 61.5447C105.142 55.9506 128.856 58.1477 151.492 79.3964L154.23 76.48ZM67.6233 92.1059C71.5484 98.3207 78.6435 102.967 86.9417 105.768C95.272 108.579 105.022 109.606 114.538 108.408C133.597 106.009 152.093 94.5743 155.912 70.2799L151.961 69.6587C148.495 91.7063 131.872 102.195 114.039 104.44C105.109 105.564 95.9677 104.592 88.2209 101.978C80.4421 99.3523 74.2734 95.1446 71.0053 89.97L67.6233 92.1059ZM155.912 70.2801C157.854 57.9374 152.987 45.8987 143.898 35.5135C134.81 25.1301 121.39 16.2487 105.795 10.0675C74.6343 -2.28379 34.2582 -4.04955 1.39185 15.1969L3.41317 18.6486C34.9615 0.173988 73.997 1.76636 104.322 13.786C119.47 19.7904 132.311 28.3476 140.888 38.1478C149.463 47.9462 153.664 58.836 151.961 69.6584L155.912 70.2801ZM177.327 200.893L158.799 209.542L160.491 213.166L179.019 204.518L177.327 200.893ZM159.645 211.354C161.335 210.284 161.335 210.284 161.335 210.284C161.335 210.284 161.335 210.283 161.335 210.283C161.334 210.283 161.334 210.282 161.333 210.281C161.332 210.28 161.331 210.277 161.328 210.273C161.324 210.267 161.318 210.256 161.309 210.243C161.292 210.216 161.267 210.177 161.234 210.125C161.168 210.021 161.072 209.869 160.948 209.674C160.7 209.285 160.344 208.725 159.908 208.044C159.038 206.681 157.851 204.831 156.585 202.881C154.084 199.028 151.188 194.648 149.87 192.979L146.731 195.458C147.905 196.945 150.681 201.133 153.23 205.059C154.489 206.998 155.671 208.84 156.538 210.197C156.971 210.876 157.326 211.433 157.572 211.82C157.695 212.014 157.791 212.165 157.856 212.268C157.889 212.319 157.914 212.358 157.931 212.385C157.939 212.398 157.945 212.408 157.949 212.414C157.952 212.418 157.953 212.42 157.954 212.422C157.955 212.422 157.955 212.423 157.955 212.423C157.955 212.424 157.955 212.424 157.956 212.424C157.956 212.424 157.956 212.424 159.645 211.354Z" fill="#004EEB"/>
</svg>
